<?xml version="1.0" encoding="utf-8"?>
<!-- Generator: Adobe Illustrator 22.0.1, SVG Export Plug-In . SVG Version: 6.00 Build 0)  -->
<svg version="1.1" id="Layer_1" xmlns="http://www.w3.org/2000/svg" xmlns:xlink="http://www.w3.org/1999/xlink" x="0px" y="0px"
	 viewBox="0 0 41.8 43.9" style="enable-background:new 0 0 41.8 43.9;" xml:space="preserve">
<style type="text/css">
	.st0{fill:none;stroke:#1C9AE1;stroke-width:2.1654;stroke-miterlimit:10;}
	.st1{fill:#1C9AE1;}
</style>
<g>
	<path class="st0" d="M25.1,28.8c-2.2,1.6-4.3,2-7.2,2.2c-8,0.6-15-5.5-15.6-13.5C1.8,9.5,7.8,2.5,15.9,2c8-0.6,15,5.5,15.6,13.5
		C31.7,19,30,23.3,28,26l12.7,13.7c0,0,0,0.3-0.2,0.5c-0.2,0.2-1.9,1.8-2.3,2c-0.3,0.2-0.6,0-0.6,0L25.1,28.8z"/>
</g>
<g>
	<path class="st1" d="M10.3,18.5c-0.1,0.1-0.1,0.2-0.2,0.2c0,0-0.1,0-0.2,0c-0.1,0-0.2,0-0.3-0.1c-0.1-0.1-0.1-0.2-0.1-0.5v-0.6
		c0-0.2,0-0.4,0.1-0.5c0.1-0.1,0.2-0.1,0.3-0.1c0.1,0,0.2,0,0.3,0.1c0.1,0.1,0.1,0.1,0.2,0.3c0,0.1,0.1,0.2,0.1,0.3
		c0.1,0.1,0.2,0.2,0.5,0.3c0.2,0.1,0.5,0.1,0.7,0.1c0.4,0,0.7-0.1,1-0.3c0.2-0.1,0.2-0.3,0.2-0.4c0-0.1,0-0.2-0.1-0.3
		c-0.1-0.1-0.2-0.2-0.4-0.2c-0.1,0-0.4-0.1-0.8-0.2c-0.5-0.1-0.9-0.2-1.1-0.3s-0.5-0.3-0.6-0.5c-0.1-0.2-0.2-0.5-0.2-0.8
		c0-0.4,0.2-0.8,0.5-1.1c0.4-0.3,0.8-0.5,1.4-0.5c0.2,0,0.4,0,0.6,0.1c0.2,0.1,0.4,0.1,0.5,0.2c0.1-0.1,0.2-0.2,0.4-0.2
		c0.1,0,0.2,0,0.3,0.1c0.1,0.1,0.1,0.2,0.1,0.5v0.7c0,0.2,0,0.4-0.1,0.5c-0.1,0.1-0.2,0.1-0.3,0.1c-0.1,0-0.2,0-0.3-0.1
		c-0.1,0-0.1-0.1-0.1-0.3c0-0.1-0.1-0.3-0.1-0.3c-0.1-0.1-0.2-0.2-0.4-0.3s-0.4-0.1-0.6-0.1c-0.3,0-0.6,0.1-0.8,0.2
		c-0.2,0.2-0.3,0.3-0.3,0.5c0,0.1,0,0.2,0.1,0.3s0.2,0.2,0.3,0.2c0.1,0,0.4,0.1,0.8,0.2c0.5,0.1,0.8,0.2,1.1,0.3
		c0.2,0.1,0.5,0.3,0.6,0.5c0.2,0.2,0.2,0.5,0.2,0.8c0,0.4-0.2,0.8-0.5,1.1c-0.4,0.4-0.9,0.5-1.6,0.5c-0.2,0-0.5,0-0.7-0.1
		C10.8,18.7,10.5,18.6,10.3,18.5z"/>
	<path class="st1" d="M17.3,18.8L17.3,18.8c0.3,0,0.6,0.1,0.9,0.2c0.1,0.1,0.2,0.1,0.3,0.1c0.1,0,0.2-0.1,0.4-0.1
		c0.2-0.1,0.3-0.1,0.4-0.1c0.1,0,0.2,0,0.3,0.1c0.1,0.1,0.1,0.2,0.1,0.3c0,0.2-0.1,0.3-0.2,0.4c-0.3,0.2-0.6,0.3-1,0.3
		c-0.2,0-0.3,0-0.5-0.1c-0.3-0.1-0.5-0.2-0.6-0.2c-0.3,0-0.6,0.1-1.2,0.2c-0.1,0-0.2,0-0.3,0c-0.1,0-0.2,0-0.3-0.1
		c-0.1-0.1-0.1-0.2-0.1-0.3c0-0.1,0.1-0.2,0.2-0.3l0.6-0.6c-0.5-0.2-0.9-0.5-1.2-1c-0.3-0.5-0.5-1-0.5-1.6c0-0.9,0.3-1.6,0.9-2.1
		c0.5-0.4,1-0.7,1.6-0.7c0.6,0,1.1,0.2,1.6,0.7c0.6,0.6,0.9,1.3,0.9,2.1c0,0.8-0.2,1.4-0.7,1.9C18.4,18.5,17.9,18.8,17.3,18.8z
		 M18.7,16c0-0.5-0.2-1-0.5-1.4c-0.3-0.4-0.7-0.5-1.1-0.5c-0.4,0-0.8,0.2-1.1,0.5c-0.3,0.4-0.5,0.8-0.5,1.4c0,0.5,0.2,1,0.5,1.4
		c0.3,0.4,0.7,0.5,1.1,0.5c0.4,0,0.8-0.2,1.1-0.5C18.5,17,18.7,16.6,18.7,16z"/>
	<path class="st1" d="M22.1,14.3v3.5H24V17c0-0.2,0-0.4,0.1-0.5c0.1-0.1,0.2-0.1,0.3-0.1c0.1,0,0.2,0,0.3,0.1
		c0.1,0.1,0.1,0.2,0.1,0.5v1.8h-4.3c-0.2,0-0.4,0-0.5-0.1c-0.1-0.1-0.1-0.2-0.1-0.3c0-0.1,0-0.2,0.1-0.3c0.1-0.1,0.2-0.1,0.5-0.1
		h0.5v-3.5h-0.5c-0.2,0-0.4,0-0.5-0.1c-0.1-0.1-0.1-0.2-0.1-0.3c0-0.1,0-0.2,0.1-0.3c0.1-0.1,0.2-0.1,0.5-0.1l2,0
		c0.2,0,0.4,0,0.5,0.1c0.1,0.1,0.1,0.2,0.1,0.3c0,0.1,0,0.2-0.1,0.3c-0.1,0.1-0.2,0.1-0.5,0.1H22.1z"/>
</g>
</svg>
